<svg width="30" height="30" fill="none" xmlns="http://www.w3.org/2000/svg"><path d="M6.381 29.35c.46-1.472 1.155-3.545 2.086-6.542 4.061-.644 5.741.511 8.32-4.094-2.093.64-4.616-1.188-4.481-1.981.137-.792 5.87.571 9.624-4.76-4.732 1.044-6.246-1.254-5.636-1.6 1.409-.801 5.59-.333 7.819-2.504 1.149-1.117 1.687-3.834 1.219-4.803-.561-1.171-3.984-2.919-5.871-2.754-1.887.164-4.846 7.185-5.725 7.131-.877-.055-1.055-3.147.478-6.02-1.616.716-4.577 2.94-5.505 4.84-1.73 3.535.162 11.649-.444 11.937-.608.29-2.649-3.722-3.258-5.541-.833 2.788-.852 5.581 1.58 9.29-.917 2.435-1.418 5.237-1.495 6.662-.036 1.139 1.086 1.383 1.289.74Z" fill="#fff"/></svg>