<svg width="152" height="25" fill="none" xmlns="http://www.w3.org/2000/svg"><path d="M16.813 3.385c-1.004-1.058-2.267-1.87-3.778-2.447C11.524.36 9.764.077 7.755.077H6.294L0 6.016v18.69h7.527c2.048 0 3.838-.308 5.369-.91 1.531-.603 2.814-1.463 3.848-2.57 1.034-1.107 1.8-2.41 2.317-3.935.507-1.524.765-3.197.765-5.029v-.074c0-1.832-.248-3.492-.756-4.98-.497-1.487-1.252-2.766-2.257-3.811v-.012Zm-3.818 9.037c0 1.783-.457 3.074-1.372 3.886-.914.811-2.157 1.217-3.718 1.217H6.77V7.258h1.134c1.56 0 2.804.406 3.718 1.217.915.812 1.372 2.103 1.372 3.886v.073-.012ZM42.409 11.82c1.196-.468 2.145-1.156 2.856-2.054.712-.897 1.068-2.09 1.068-3.566v-.073c0-.849-.13-1.587-.378-2.214a5.354 5.354 0 0 0-.97-1.623c-.647-.725-1.466-1.279-2.468-1.647-1.003-.37-2.253-.566-3.784-.566h-2.705L28.74 6.422l-2.306 2.004v16.28h12.19c1.38 0 2.61-.172 3.665-.517 1.057-.344 1.94-.811 2.652-1.426.711-.615 1.25-1.328 1.606-2.164a6.904 6.904 0 0 0 .539-2.73v-.073c0-1.685-.42-2.988-1.261-3.91-.84-.91-1.983-1.611-3.417-2.079v.013Zm-8.817-5.521h3.169c1.574 0 2.35.565 2.35 1.684v.074c0 1.131-.776 1.685-2.318 1.685h-3.201V6.299Zm6.09 10.377c0 .542-.205.972-.614 1.304-.41.332-1.014.492-1.8.492h-3.676v-3.664h3.697c.798 0 1.39.16 1.79.491.398.332.592.763.592 1.304v.073h.011ZM59.262.077h-.423l-5.44 4.82-1.355 1.193v18.616H69.39V17.66H59.262V.077ZM88.322.077l-7.716 6.716-.588.513-6.496 17.4h7.79l1.124-3.285h7.63l1.156 3.285h7.908L89.938.076h-1.616ZM84.277 15.62l1.99-5.934 1.99 5.934h-3.991.01ZM124.599.077h-7.917l-5.788 9.21V.077h-1.249l-5.558 5.213v19.416h6.807v-5.25l1.74-2.57 3.988 7.82h8.117l-7.237-13.932L124.599.077ZM144.466 10.774 151.844.077h-8.219l-6.027 9.21V.077h-3.18l-1.974 1.783-1.922 1.734v21.112h7.076v-5.25l1.818-2.57 4.146 7.82H152l-7.534-13.932Z" fill="#fff"/></svg>