<svg width="54" height="54" fill="none" xmlns="http://www.w3.org/2000/svg"><g clip-path="url('#clip0_9_3100')" fill="#3AC9FC"><path fill-rule="evenodd" clip-rule="evenodd" d="M37.02 44.13a19.745 19.745 0 0 1-9.88 2.632c-10.954 0-19.834-8.88-19.834-19.835 0-10.954 8.88-19.834 19.834-19.834 10.955 0 19.835 8.88 19.835 19.834a19.75 19.75 0 0 1-4.209 12.218c-.876 1.751-.278 3.729 1.06 5.29-2.584-1.792-3.87-2.022-6.157-.695-.16.1-.321.198-.484.294l-.198.127.034-.031ZM53.81 26.927c0 14.729-11.94 26.669-26.669 26.669-14.728 0-26.668-11.94-26.668-26.669C.472 12.2 12.412.26 27.14.26c14.729 0 26.669 11.94 26.669 26.668Z"/><path d="M34.578 23.284c-2.187.584-3.697 2.34-4.532 3.763-.432.737-.138 1.65.625 2.038 1.565.799 3.86 1.589 5.755 1.082 1.918-.512 3.454-2.362 4.345-3.827.419-.689.231-1.57-.457-1.992-1.375-.844-3.521-1.657-5.736-1.064ZM19.88 23.333c-2.187-.584-4.375.182-5.811.999-.744.422-.946 1.36-.48 2.077.955 1.472 2.547 3.302 4.442 3.808 1.918.513 4.174-.322 5.68-1.147.708-.388.987-1.244.603-1.953-.768-1.416-2.22-3.191-4.435-3.784Z"/></g><defs><clipPath id="clip0_9_3100"><path fill="#fff" d="M0 0h54v54H0z"/></clipPath></defs></svg>