<svg width="394" height="352" fill="none" xmlns="http://www.w3.org/2000/svg"><g opacity=".15" fill="#fff"><path d="M189.848 295.32 49.22 188.755l47.47-103.7h47.124v34.74H116.4l-26.352 57.582 67.924 51.473V0h31.876v295.32ZM203.912 295.32V0h31.876v228.85l67.924-51.473-26.378-57.582H249.92v-34.74h47.124l47.496 103.7L203.912 295.32Z"/><path d="m197.015 351.572-14.051-10.909L0 200.146 80.436 49.22h71.068v17.642h-61.7L21.495 195.059 197.07 329.931l175.194-134.872-68.307-128.197h-61.701V49.22h71.069l80.436 150.926-196.745 151.426Z"/></g></svg>