<svg width="73" height="74" fill="none" xmlns="http://www.w3.org/2000/svg"><g clip-path="url('#clip0_17_1521')"><path d="M36.787 74h-.856c-.669-.329-1.406-.452-2.075-.806A17629.491 17629.491 0 0 0 2.23 56.53C.74 55.745 0 54.543 0 52.822.01 36.141.006 19.457.006 2.776.006 1.123.947.052 2.55.031 5.472-.01 8.395.015 11.318.019c.715 0 1.17.33 1.256 1.09-.23.898-.505 1.116-1.46 1.118-2.755.004-5.508.01-8.263-.006-.503-.004-.726.132-.717.692.027 1.903.029 3.807-.002 5.709-.007.508.181.578.614.576 6.768-.012 13.534-.013 20.302 0 .465 0 .614-.124.608-.603a224.694 224.694 0 0 1 0-5.782c.008-.495-.162-.601-.613-.598-2.09.022-4.179.016-6.27.006-.878-.004-1.156-.24-1.392-1.115.234-.938.465-1.09 1.688-1.09C34.674.015 52.28.025 69.886 0 71.392-.002 72.453.505 73 1.962v52.076c-.53.986-1.08 1.926-2.142 2.467-2.471 1.262-4.916 2.577-7.37 3.874-.621.329-1.178.32-1.646-.27-.261-.929-.132-1.263.684-1.698 1.398-.75 2.8-1.492 4.203-2.239.947-.489 1.88-1.005 2.843-1.457.928-.437 1.305-1.108 1.303-2.162-.022-13.462-.015-26.927-.015-40.39 0-.12-.013-.243.002-.361.046-.344-.088-.454-.432-.448-1.233.027-2.468.023-3.7.03-.096-.007-.19-.023-.285-.023-21.24 0-42.482 0-63.722-.015-.55 0-.587.209-.587.663.01 13.573.011 27.144 0 40.716 0 .903.354 1.483 1.138 1.895 10.394 5.461 20.792 10.917 31.161 16.426 1.452.771 2.71.766 4.15-.004 6.277-3.358 12.592-6.642 18.882-9.977.705-.373 1.286-.41 1.837.213.23.889.083 1.253-.736 1.687-2.553 1.354-5.078 2.765-7.673 4.03-4.72 2.3-9.091 5.32-14.106 7.005h-.002ZM60.125 9.185v-.012c3.373 0 6.743-.006 10.116.008.42 0 .636-.047.629-.57a211.076 211.076 0 0 1-.006-5.711c.006-.507-.185-.667-.673-.667-6.743.008-13.488.008-20.232-.012-.488 0-.596.165-.59.62.02 1.88.03 3.76-.006 5.638-.012.58.16.721.716.717 3.348-.025 6.696-.013 10.046-.013v.002ZM36.537 2.23c-3.395 0-6.79.006-10.188-.008-.406 0-.58.056-.572.538.03 1.95.03 3.903 0 5.855-.008.509.177.576.61.574 6.743-.011 13.489-.015 20.232.004.528 0 .612-.18.604-.655-.025-1.856-.034-3.712.004-5.566.011-.58-.103-.765-.719-.758-3.325.037-6.648.018-9.973.018l.002-.002Z" fill="#fff"/><path d="M12.574 1.11h2.809c.236.875.514 1.111 1.393 1.115 2.09.008 4.178.013 6.269-.006.451-.004.62.102.613.597a216.404 216.404 0 0 0 0 5.782c.006.48-.14.606-.608.604-6.768-.016-13.534-.014-20.302 0-.433 0-.623-.068-.614-.576.03-1.903.03-3.807.002-5.71-.008-.56.213-.693.716-.691 2.756.015 5.51.01 8.265.006.954 0 1.228-.22 1.459-1.118l-.002-.004Z" fill="#59BE8F"/><path d="M60.125 9.185c-3.348 0-6.696-.014-10.046.014-.556.003-.728-.14-.716-.718.036-1.879.025-3.758.006-5.637-.006-.456.102-.62.59-.62 6.744.019 13.489.019 20.232.011.488 0 .677.159.673.667-.019 1.904-.027 3.807.006 5.71.01.525-.208.573-.63.571-3.372-.013-6.742-.008-10.115-.008v.012-.002Z" fill="#F04A58"/><path d="M36.537 2.23c3.325 0 6.65.02 9.973-.016.618-.006.732.18.719.757-.038 1.854-.029 3.71-.004 5.566.006.475-.076.657-.604.655-6.744-.02-13.489-.017-20.232-.004-.433 0-.62-.067-.61-.574.03-1.95.03-3.903 0-5.855-.008-.48.166-.54.572-.538 3.395.016 6.79.008 10.188.008l-.002.002Z" fill="#F9F9F9"/><path d="M9.344 31.93H6.372v-8.9h3.031c.871 0 1.62.178 2.247.531a3.576 3.576 0 0 1 1.446 1.528c.338.663.505 1.457.505 2.381 0 .924-.17 1.725-.507 2.39a3.574 3.574 0 0 1-1.461 1.535c-.635.355-1.399.533-2.289.533v.002Zm-1.383-1.396h1.307c.612 0 1.12-.114 1.528-.34.408-.228.715-.568.92-1.02.206-.453.31-1.021.31-1.702 0-.68-.104-1.247-.31-1.697a2.137 2.137 0 0 0-.91-1.013c-.402-.224-.9-.337-1.492-.337H7.96v6.11ZM15.11 31.93v-8.9h5.705v1.351H16.7v2.416h3.82v1.352H16.7v2.43h4.15v1.351H15.11ZM27.206 25.477a1.197 1.197 0 0 0-.503-.887c-.295-.21-.678-.317-1.15-.317-.332 0-.616.05-.853.153-.236.102-.419.24-.543.412-.125.174-.19.373-.192.595 0 .186.042.346.126.483.083.137.198.252.345.346.146.095.306.174.483.236.178.064.357.118.536.16l.823.21c.332.077.65.183.957.316.306.134.583.302.827.505.243.203.438.448.58.735.144.286.214.622.214 1.007 0 .522-.131.98-.394 1.376-.263.395-.642.704-1.138.926-.495.223-1.094.333-1.797.333-.703 0-1.274-.107-1.776-.321a2.642 2.642 0 0 1-1.173-.94c-.282-.412-.433-.912-.456-1.504h1.565c.023.31.116.569.282.774.165.204.38.36.65.46.268.1.565.152.897.152.332 0 .65-.052.91-.158.262-.107.468-.253.616-.443.149-.19.225-.412.227-.667a.863.863 0 0 0-.202-.576 1.496 1.496 0 0 0-.55-.383 5.597 5.597 0 0 0-.826-.276l-.998-.261c-.722-.188-1.294-.474-1.711-.858-.42-.385-.627-.896-.627-1.532 0-.523.14-.984.42-1.378.283-.394.666-.7 1.152-.918.486-.219 1.034-.329 1.648-.329.614 0 1.168.11 1.639.329.468.218.838.522 1.107.908.268.387.407.832.415 1.332h-1.53ZM31.858 23.03v8.9h-1.59v-8.9h1.59ZM39.458 25.872a2.396 2.396 0 0 0-.293-.632 1.969 1.969 0 0 0-.446-.48 1.834 1.834 0 0 0-.593-.301 2.491 2.491 0 0 0-.728-.103c-.47 0-.891.12-1.26.362-.367.24-.657.593-.866 1.057-.21.464-.314 1.03-.314 1.697s.104 1.241.312 1.707c.208.466.497.822.869 1.064a2.32 2.32 0 0 0 1.294.363c.446 0 .83-.087 1.158-.26.328-.175.58-.422.757-.741.177-.321.265-.696.265-1.127l.36.056H37.59v-1.26h3.56v1.068c0 .762-.16 1.421-.48 1.978-.321.557-.761.984-1.32 1.284-.56.3-1.202.45-1.928.45-.808 0-1.517-.186-2.126-.555-.61-.369-1.084-.895-1.427-1.577-.343-.683-.513-1.493-.513-2.432 0-.72.1-1.361.301-1.926a4.187 4.187 0 0 1 .846-1.44 3.66 3.66 0 0 1 1.277-.905 4.008 4.008 0 0 1 1.593-.31c.485 0 .937.07 1.356.214.42.143.793.346 1.12.61a3.358 3.358 0 0 1 1.224 2.139h-1.62.004ZM49.898 23.03v8.9h-1.414l-4.133-6.062h-.072v6.062h-1.59v-8.9h1.422l4.13 6.066h.075V23.03h1.582ZM51.623 31.93v-8.9h5.705v1.351h-4.116v2.416h3.82v1.352h-3.82v2.43h4.15v1.351h-5.74ZM61.924 31.93H58.95v-8.9h3.032c.87 0 1.62.178 2.246.531a3.576 3.576 0 0 1 1.447 1.528c.337.663.504 1.457.504 2.381 0 .924-.17 1.725-.506 2.39a3.573 3.573 0 0 1-1.462 1.535c-.634.355-1.399.533-2.288.533v.002Zm-1.384-1.396h1.307c.612 0 1.12-.114 1.529-.34.407-.228.714-.568.92-1.02.206-.453.309-1.021.309-1.702 0-.68-.103-1.247-.309-1.697a2.137 2.137 0 0 0-.91-1.013c-.403-.224-.9-.337-1.493-.337H60.54v6.11ZM9.38 36.365v11.071H7.403V36.365H9.38ZM20.497 36.365v11.071h-1.759l-5.143-7.541h-.091v7.541h-1.978V36.365h1.768l5.137 7.547h.096v-7.547h1.97ZM28.346 36.365v11.071h-1.978V36.365h1.978ZM30.013 38.047v-1.682h8.708v1.682H35.35v9.391h-1.961v-9.391h-3.375ZM40.474 47.436h-2.11l3.842-11.071h2.44l3.848 11.071h-2.11l-2.915-8.802h-.086l-2.91 8.802Zm.068-4.342h5.755v1.61h-5.755v-1.61ZM49.933 47.436V36.365h1.977v9.391h4.806v1.682h-6.783v-.002ZM56.583 36.365h2.233l2.67 4.898h.106l2.67-4.898h2.233l-3.97 6.942v4.131h-1.971v-4.131l-3.97-6.942h-.002Z" fill="#fff"/></g><defs><clipPath id="clip0_17_1521"><path fill="#fff" d="M0 0h73v74H0z"/></clipPath></defs></svg>