<svg width="30" height="30" fill="none" xmlns="http://www.w3.org/2000/svg"><path d="M9.986 3.164a1 1 0 1 0-1.972-.328l-4 24a1 1 0 1 0 1.972.328l1.34-8.04c1.612.236 3.354.314 4.726 1.276.849.61 1.83 1.01 2.864 1.166 1.932.292 3.66-.77 5.568-.468l2.578.388c.52.08 1.06-.32 1.138-.84l1.768-11.868.008-.008a1.037 1.037 0 0 0-.854-1.128l-2.578-.388c-1.926-.286-3.658.746-5.566.46A5.6 5.6 0 0 1 14.6 6.76c-1.478-1.034-3.238-1.206-4.972-1.45l.36-2.148-.002.002Zm-1.18 7.076.66-3.944c1.198.164 2.466.258 3.576.738l-.59 3.93c-1.14-.466-2.428-.556-3.646-.724Zm-1.314 7.9.66-3.948c1.24.172 2.554.26 3.716.736l.6-3.952c1.316.54 2.318 1.466 3.786 1.682l.6-3.96c1.476.222 2.698-.354 4.116-.468l-.6 3.932c-1.42.12-2.648.72-4.12.5l-.572 3.956c-1.472-.22-2.476-1.15-3.798-1.688l-.6 3.952c-1.19-.478-2.526-.562-3.788-.742Zm8.188-1.52c1.468.22 2.702-.384 4.122-.502l.568-3.956c1.31-.12 2.65.222 3.936.418l-.56 3.952c-1.288-.194-2.632-.538-3.942-.414l-.6 3.952c-1.418.096-2.67.72-4.124.5l.598-3.952.002.002Z" fill="#fff"/></svg>