<svg width="40" height="40" fill="none" xmlns="http://www.w3.org/2000/svg"><path d="M20 4.484C11.43 4.484 4.484 11.43 4.484 20c0 8.57 6.947 15.516 15.516 15.516 8.57 0 15.516-6.947 15.516-15.516 0-8.57-6.947-15.516-15.516-15.516Zm0 27.136c-6.417 0-11.62-5.203-11.62-11.62 0-6.417 5.203-11.62 11.62-11.62 6.417 0 11.62 5.203 11.62 11.62 0 6.417-5.203 11.62-11.62 11.62Z" fill="#fff"/><path d="M20 16.247a3.753 3.753 0 1 0 0 7.506 3.753 3.753 0 0 0 0-7.506Zm0 5.42a1.667 1.667 0 1 1 0-3.334 1.667 1.667 0 0 1 0 3.334Z" fill="#fff"/></svg>